<svg viewBox="0 0 106 25.6626" xmlns="http://www.w3.org/2000/svg" xmlns:xlink="http://www.w3.org/1999/xlink" width="106.000000" height="25.662598" fill="none" customFrame="#000000">
	<defs>
		<linearGradient id="paint_linear_0" x1="6.56789207" x2="9.46097755" y1="13.2556162" y2="18.5596142" gradientUnits="userSpaceOnUse">
			<stop stop-color="rgb(255,255,255)" offset="0" stop-opacity="0.400000006" />
			<stop stop-color="rgb(255,255,255)" offset="1" stop-opacity="0" />
		</linearGradient>
		<linearGradient id="paint_linear_1" x1="11.7497396" x2="14.6428852" y1="10.4293642" y2="15.7334423" gradientUnits="userSpaceOnUse">
			<stop stop-color="rgb(255,255,255)" offset="0" stop-opacity="0.400000006" />
			<stop stop-color="rgb(255,255,255)" offset="1" stop-opacity="0" />
		</linearGradient>
		<linearGradient id="paint_linear_2" x1="16.8503456" x2="19.743454" y1="7.64724159" y2="12.9512539" gradientUnits="userSpaceOnUse">
			<stop stop-color="rgb(255,255,255)" offset="0" stop-opacity="0.400000006" />
			<stop stop-color="rgb(255,255,255)" offset="1" stop-opacity="0" />
		</linearGradient>
		<linearGradient id="paint_linear_3" x1="4.2509613" x2="7.14408922" y1="14.5190773" y2="19.8231239" gradientUnits="userSpaceOnUse">
			<stop stop-color="rgb(255,255,255)" offset="0" stop-opacity="0.400000006" />
			<stop stop-color="rgb(255,255,255)" offset="1" stop-opacity="0" />
		</linearGradient>
		<linearGradient id="paint_linear_4" x1="12.6704388" x2="15.5635548" y1="9.92700672" y2="15.2310581" gradientUnits="userSpaceOnUse">
			<stop stop-color="rgb(255,255,255)" offset="0" stop-opacity="0.400000006" />
			<stop stop-color="rgb(255,255,255)" offset="1" stop-opacity="0" />
		</linearGradient>
		<linearGradient id="paint_linear_5" x1="19.4673824" x2="22.3604717" y1="6.21957588" y2="11.5235739" gradientUnits="userSpaceOnUse">
			<stop stop-color="rgb(255,255,255)" offset="0" stop-opacity="0.400000006" />
			<stop stop-color="rgb(255,255,255)" offset="1" stop-opacity="0" />
		</linearGradient>
		<linearGradient id="paint_linear_6" x1="6.24008846" x2="9.13322639" y1="13.4339924" y2="18.7380924" gradientUnits="userSpaceOnUse">
			<stop stop-color="rgb(255,255,255)" offset="0" stop-opacity="0.400000006" />
			<stop stop-color="rgb(255,255,255)" offset="1" stop-opacity="0" />
		</linearGradient>
		<linearGradient id="paint_linear_7" x1="0.725771427" x2="3.61882567" y1="16.4422665" y2="21.7462063" gradientUnits="userSpaceOnUse">
			<stop stop-color="rgb(255,255,255)" offset="0" stop-opacity="0.400000006" />
			<stop stop-color="rgb(255,255,255)" offset="1" stop-opacity="0" />
		</linearGradient>
		<linearGradient id="paint_linear_8" x1="12.2850304" x2="15.1781483" y1="10.1374855" y2="15.4415007" gradientUnits="userSpaceOnUse">
			<stop stop-color="rgb(255,255,255)" offset="0" stop-opacity="0.400000006" />
			<stop stop-color="rgb(255,255,255)" offset="1" stop-opacity="0" />
		</linearGradient>
	</defs>
	<g id="Group 165">
		<g id="Group">
			<path id="Vector" d="M36.7032 16.2437L36.7032 17.8939L31 17.8939L31 9.35229L32.9275 9.35229L32.9275 16.2437L36.7032 16.2437Z" fill="rgb(36,124,192)" fill-rule="nonzero" />
			<path id="Vector" d="M37.9442 9.35229L39.8717 9.35229L39.8717 17.8939L37.9442 17.8939L37.9442 9.35229Z" fill="rgb(36,124,192)" fill-rule="nonzero" />
			<path id="Vector" d="M47.5684 17.8939C47.0139 16.917 46.4198 15.9533 45.7861 14.9895C45.1392 14.039 44.4659 13.1412 43.7398 12.2831L43.7398 17.8807L41.8387 17.8807L41.8387 9.35229L43.4098 9.35229C43.687 9.62954 43.9775 9.95958 44.3075 10.3556C44.6375 10.7517 44.9676 11.1742 45.3108 11.623C45.6541 12.0719 45.9973 12.534 46.3274 13.0224C46.6706 13.4977 46.9875 13.9598 47.2779 14.4086L47.2779 9.35229L49.1922 9.35229L49.1922 17.8939L47.5684 17.8939Z" fill="rgb(36,124,192)" fill-rule="nonzero" />
			<path id="Vector" d="M56.2025 17.8939C56.0308 17.6167 55.8196 17.313 55.5952 16.9962C55.3575 16.6794 55.1067 16.3493 54.8295 16.0193C54.5522 15.6892 54.275 15.3724 53.9713 15.0819C53.6809 14.7783 53.3772 14.5142 53.0868 14.2898L53.0868 17.9071L51.1593 17.9071L51.1593 9.35229L53.0868 9.35229L53.0868 12.5604C53.5753 12.0455 54.0901 11.491 54.5918 10.9365C55.1067 10.3688 55.5688 9.84076 56.0044 9.35229L58.2884 9.35229C57.7075 10.0388 57.1266 10.7121 56.5325 11.3458C55.9384 11.9795 55.3179 12.6264 54.671 13.2733C55.3575 13.8409 56.0176 14.5142 56.6513 15.3063C57.285 16.0853 57.8923 16.9566 58.4864 17.8939L56.2025 17.8939Z" fill="rgb(36,124,192)" fill-rule="nonzero" />
			<path id="Vector" d="M59.5953 17.8939L59.5953 9.35229L65.3646 9.35229L65.3646 10.9629L61.5228 10.9629L61.5228 12.6396L64.9421 12.6396L64.9421 14.2238L61.5228 14.2238L61.5228 16.2833L65.655 16.2833L65.655 17.8939L59.5953 17.8939Z" fill="rgb(36,124,192)" fill-rule="nonzero" />
			<path id="Vector" d="M74.5531 13.6157C74.5531 14.355 74.4343 15.0019 74.2098 15.5563C73.9854 16.1108 73.6553 16.5597 73.2329 16.9293C72.8104 17.2858 72.2955 17.563 71.6882 17.7478C71.081 17.9327 70.3945 18.0251 69.6419 18.0251C69.2987 18.0251 68.8894 18.0119 68.4274 17.9855C67.9653 17.9591 67.5164 17.8931 67.0676 17.8007L67.0676 9.47027C67.5164 9.39106 67.9785 9.33824 68.4538 9.29864C68.929 9.27223 69.3515 9.25903 69.6948 9.25903C70.4209 9.25903 71.0942 9.33825 71.6882 9.50987C72.2823 9.66829 72.7972 9.93233 73.2197 10.2888C73.6421 10.6452 73.9722 11.0941 74.2098 11.6486C74.4343 12.1767 74.5531 12.8367 74.5531 13.6157ZM68.9951 16.322C69.0875 16.3352 69.1931 16.3353 69.3119 16.3353C69.4307 16.3353 69.5759 16.3353 69.7344 16.3353C70.6981 16.3353 71.411 16.0976 71.8731 15.6091C72.3351 15.1207 72.5728 14.4606 72.5728 13.6025C72.5728 12.7047 72.3484 12.0314 71.9127 11.5694C71.4638 11.1073 70.7641 10.8829 69.8004 10.8829C69.6684 10.8829 69.5363 10.8829 69.3911 10.8829C69.2459 10.8829 69.1139 10.8961 68.9951 10.9093L68.9951 16.322Z" fill="rgb(36,124,192)" fill-rule="nonzero" />
			<path id="Vector" d="M82.2101 9.35229L82.2101 10.9893L79.6358 10.9893L79.6358 17.8939L77.7083 17.8939L77.7083 10.9893L75.1339 10.9893L75.1339 9.35229L82.2101 9.35229Z" fill="rgb(36,124,192)" fill-rule="nonzero" />
			<path id="Vector" d="M83.4511 17.8939L83.4511 9.35229L89.2203 9.35229L89.2203 10.9629L85.3786 10.9629L85.3786 12.6396L88.7979 12.6396L88.7979 14.2238L85.3786 14.2238L85.3786 16.2833L89.5108 16.2833L89.5108 17.8939L83.4511 17.8939Z" fill="rgb(36,124,192)" fill-rule="nonzero" />
			<path id="Vector" d="M94.8179 18.0653C93.4317 18.0653 92.3756 17.6825 91.6363 16.9035C90.9102 16.1246 90.5405 15.0289 90.5405 13.6163C90.5405 12.9034 90.6461 12.2829 90.8706 11.7284C91.095 11.1739 91.3987 10.6987 91.7815 10.329C92.1644 9.94615 92.6264 9.65571 93.1677 9.45768C93.6958 9.25965 94.2767 9.16724 94.9104 9.16724C95.2668 9.16724 95.5969 9.19364 95.9005 9.24645C96.1909 9.29926 96.455 9.36526 96.6794 9.43127C96.9038 9.49728 97.0887 9.5765 97.2339 9.64251C97.3791 9.72172 97.4847 9.77453 97.5507 9.81413L96.9963 11.372C96.7322 11.2267 96.4286 11.1079 96.0721 11.0155C95.7289 10.9231 95.3196 10.8703 94.884 10.8703C94.5935 10.8703 94.3031 10.9231 94.0126 11.0155C93.7354 11.1079 93.4846 11.2663 93.2601 11.4908C93.0357 11.7152 92.8641 11.9924 92.732 12.3357C92.6 12.6789 92.534 13.1014 92.534 13.5899C92.534 13.9859 92.5736 14.3556 92.666 14.6988C92.7584 15.0421 92.8905 15.3325 93.0885 15.5834C93.2865 15.8342 93.5374 16.019 93.841 16.1642C94.1579 16.3095 94.5275 16.3755 94.9764 16.3755C95.2536 16.3755 95.5044 16.3623 95.7289 16.3227C95.9533 16.2963 96.1513 16.2567 96.323 16.2038C96.4946 16.1642 96.653 16.1114 96.785 16.0454C96.9171 15.9926 97.0359 15.9398 97.1415 15.887L97.6696 17.4316C97.3923 17.59 97.0095 17.7485 96.521 17.8805C96.0325 17.9993 95.4648 18.0653 94.8179 18.0653Z" fill="rgb(36,124,192)" fill-rule="nonzero" />
			<path id="Vector" d="M104.072 9.35229L106 9.35229L106 17.8939L104.072 17.8939L104.072 14.2634L100.838 14.2634L100.838 17.8939L98.9105 17.8939L98.9105 9.35229L100.838 9.35229L100.838 12.6264L104.072 12.6264L104.072 9.35229Z" fill="rgb(36,124,192)" fill-rule="nonzero" />
		</g>
		<g id="Group">
			<path id="Vector" d="M4.59431 6.61066C4.67784 5.92848 4.95628 5.30197 5.36699 4.79381L4.32978 3.71484L1.13462 5.55954C0.765684 5.77533 0.431551 6.17211 0.222717 6.61066L4.59431 6.61066Z" fill="rgb(38,34,98)" fill-rule="nonzero" />
			<path id="Vector" d="M11.451 18.6187L8.87542 10.6481C8.65962 10.6899 8.43687 10.7108 8.20715 10.7108C7.7686 10.7108 7.35092 10.6342 6.9611 10.488L4.44812 15.3469C4.80314 15.6741 5.03286 16.1474 5.03286 16.6695C5.03286 16.7391 5.02589 16.8088 5.01893 16.8784L10.8315 19.2034C10.9916 18.9737 11.2074 18.7718 11.451 18.6187Z" fill="rgb(28,117,188)" fill-rule="nonzero" />
			<path id="Vector" d="M3.24394 14.8876C3.3762 14.8876 3.5015 14.9015 3.62681 14.9294L6.13977 10.0705C5.3114 9.49966 4.73362 8.58775 4.60136 7.53662L0.00701904 7.53662L0.00701904 7.54358L0.00701904 10.9615L2.68009 14.9781C2.85412 14.9224 3.04207 14.8876 3.24394 14.8876Z" fill="rgb(43,57,144)" fill-rule="nonzero" />
			<path id="Vector" d="M12.5092 18.3261C12.6623 18.3261 12.8155 18.347 12.9616 18.3748L16.0594 11.9357C15.3911 11.4554 14.9595 10.6758 14.9595 9.78475C14.9595 9.69426 14.9665 9.5968 14.9734 9.5063L11.5485 8.51782C11.1935 9.33228 10.5601 9.98662 9.75952 10.3625L12.3351 18.333C12.3908 18.333 12.4535 18.3261 12.5092 18.3261Z" fill="rgb(28,117,188)" fill-rule="nonzero" />
			<path id="Vector" d="M19.1222 11.9568C18.976 12.0612 18.8159 12.1517 18.6418 12.2213L19.331 15.2007C20.0828 15.2703 20.6745 15.9037 20.6745 16.6695C20.6745 16.9062 20.6188 17.1359 20.5144 17.3377L22.5122 19.3356C22.7489 18.9527 22.9021 18.5142 22.9021 18.1243L22.9021 15.7436L19.1222 11.9568Z" fill="rgb(46,168,224)" fill-rule="nonzero" />
			<path id="Vector" d="M10.4556 20.3795C10.4556 20.2751 10.4626 20.1707 10.4765 20.0662L4.67094 17.7412C4.53171 17.9222 4.36465 18.0823 4.16974 18.2006L5.45059 22.5931L8.10973 24.1246L10.7689 21.4654C10.574 21.1522 10.4556 20.7763 10.4556 20.3795Z" fill="rgb(46,168,224)" fill-rule="nonzero" />
			<path id="Vector" d="M18.4262 15.4089L17.737 12.4295C17.6952 12.4295 17.6465 12.4295 17.6048 12.4295C17.3611 12.4295 17.1175 12.3947 16.8947 12.332L13.797 18.7711C13.8805 18.8407 13.9641 18.9173 14.0337 18.9938L17.744 16.9403C17.7301 16.8498 17.7161 16.7593 17.7161 16.6619C17.7161 16.1398 18.0015 15.6664 18.4262 15.4089Z" fill="rgb(46,168,224)" fill-rule="nonzero" />
			<path id="Vector" d="M22.1641 5.88647L19.7764 8.27414C20.0758 8.70573 20.2567 9.22782 20.2567 9.79167C20.2567 10.3555 20.0827 10.8776 19.7764 11.3092L22.902 14.4347L22.902 7.55019C22.902 6.98634 22.5957 6.32503 22.1641 5.88647Z" fill="rgb(28,117,188)" fill-rule="nonzero" />
			<path id="Vector" d="M13.5951 22.1196C13.2819 22.3145 12.906 22.4329 12.5092 22.4329C12.1124 22.4329 11.7365 22.3215 11.4232 22.1196L8.93811 24.6047L10.3025 25.3914C10.936 25.7533 11.9662 25.7533 12.5927 25.3914L15.3006 23.8251L13.5951 22.1196Z" fill="rgb(93,203,236)" fill-rule="nonzero" />
			<path id="Vector" d="M3.27869 18.4581C3.26477 18.4581 3.25085 18.4581 3.24388 18.4581C2.2554 18.4581 1.45488 17.6575 1.45488 16.6691C1.45488 16.2166 1.62195 15.8059 1.90039 15.4857L0 12.6316L0 18.117C0 18.8479 0.515124 19.7389 1.14859 20.1009L4.29501 21.9178L3.27869 18.4581Z" fill="rgb(28,117,188)" fill-rule="nonzero" />
			<path id="Vector" d="M19.8604 17.9917C19.6585 18.0891 19.4358 18.1518 19.1921 18.1518C18.8023 18.1518 18.4542 18.0056 18.1897 17.762L14.4794 19.8155C14.5281 19.9965 14.556 20.1844 14.556 20.3794C14.556 20.7761 14.4446 21.152 14.2427 21.4653L16.1292 23.3518L21.7469 20.1079C21.7886 20.08 21.8374 20.0522 21.8791 20.0243L19.8604 17.9917Z" fill="rgb(93,203,236)" fill-rule="nonzero" />
			<path id="Vector" d="M11.8476 7.07696C11.8476 7.26491 11.8337 7.45286 11.8058 7.63385L15.2307 8.62234C15.5648 7.94711 16.1704 7.43895 16.9153 7.23707L16.4907 2.52438L12.8778 0.436035L10.5041 4.25074C11.3255 4.91901 11.8476 5.93534 11.8476 7.07696Z" fill="rgb(43,57,144)" fill-rule="nonzero" />
			<path id="Vector" d="M6.0422 4.15334C6.64782 3.70086 7.39962 3.43634 8.21408 3.43634C8.75008 3.43634 9.26521 3.55468 9.72464 3.76351L12.0218 0.060183C11.444 -0.0651176 10.7688 0.00449634 10.3094 0.275981L5.17206 3.24143L6.0422 4.15334Z" fill="rgb(38,34,98)" fill-rule="nonzero" />
			<path id="Vector" d="M21.3917 5.35051L17.4725 3.08813L17.8345 7.15344C18.3079 7.19521 18.7534 7.36228 19.1223 7.61984L21.3917 5.35051Z" fill="rgb(43,57,144)" fill-rule="nonzero" />
			<g id="Group">
				<path id="Vector" d="M5.01893 16.8846L10.8315 19.2096C10.9986 18.9729 11.2074 18.7711 11.458 18.6249L9.17475 11.5593C7.46927 12.6592 5.93085 13.9818 4.58038 15.4924C4.85883 15.8056 5.03286 16.2233 5.03286 16.6827C5.03286 16.7454 5.02589 16.815 5.01893 16.8846Z" fill="url(#paint_linear_0)" fill-rule="nonzero" />
				<path id="Vector" d="M12.5094 18.3256C12.6626 18.3256 12.8157 18.3465 12.9619 18.3744L16.0596 11.9353C15.3913 11.455 14.9598 10.6753 14.9598 9.78432C14.9598 9.69382 14.9667 9.59637 14.9737 9.50587L13.9434 9.20654C12.5582 9.69382 11.2286 10.3134 9.98254 11.0443L12.3354 18.3256C12.3911 18.3326 12.4537 18.3256 12.5094 18.3256Z" fill="url(#paint_linear_1)" fill-rule="nonzero" />
				<path id="Vector" d="M18.6418 12.2278L19.331 15.2072C20.0828 15.2768 20.6745 15.9102 20.6745 16.676C20.6745 16.9126 20.6188 17.1423 20.5144 17.3442L22.5122 19.3421C22.7489 18.9592 22.9021 18.5207 22.9021 18.1308L22.9021 15.7501L19.1222 11.9702C18.976 12.0607 18.8159 12.1512 18.6418 12.2278Z" fill="url(#paint_linear_2)" fill-rule="nonzero" />
				<path id="Vector" d="M10.4556 20.3788C10.4556 20.2743 10.4626 20.1699 10.4765 20.0655L4.67094 17.7405C4.53171 17.9215 4.36465 18.0816 4.16974 18.1999L5.45059 22.5924L8.10973 24.1238L10.7689 21.4647C10.574 21.1514 10.4556 20.7755 10.4556 20.3788Z" fill="url(#paint_linear_3)" fill-rule="nonzero" />
				<path id="Vector" d="M14.0337 19.0078L17.744 16.9542C17.7301 16.8637 17.7161 16.7732 17.7161 16.6758C17.7161 16.1398 18.0015 15.6734 18.4262 15.4089L17.737 12.4295C17.6952 12.4295 17.6465 12.4295 17.6048 12.4295C17.3611 12.4295 17.1175 12.3947 16.8947 12.332L13.797 18.7711C13.8805 18.8477 13.9571 18.9242 14.0337 19.0078Z" fill="url(#paint_linear_4)" fill-rule="nonzero" />
				<path id="Vector" d="M20.2567 9.79122C20.2567 10.3551 20.0827 10.8772 19.7764 11.3088L22.902 14.4343L22.902 8.00918C22.4008 7.97437 21.8996 7.96045 21.3914 7.96045C20.9459 7.96045 20.5004 7.97437 20.0618 8.00222L19.7834 8.28066C20.0758 8.70529 20.2567 9.22737 20.2567 9.79122Z" fill="url(#paint_linear_5)" fill-rule="nonzero" />
				<path id="Vector" d="M12.5092 22.4323C12.1124 22.4323 11.7365 22.3209 11.4232 22.119L8.93811 24.6041L10.3025 25.3908C10.936 25.7527 11.9662 25.7527 12.5927 25.3908L15.3006 23.8245L13.5882 22.1121C13.2819 22.3209 12.906 22.4323 12.5092 22.4323Z" fill="url(#paint_linear_6)" fill-rule="nonzero" />
				<path id="Vector" d="M3.27872 18.4577C3.26479 18.4577 3.25087 18.4577 3.24391 18.4577C2.9585 18.4577 2.68702 18.3881 2.45034 18.2698C2.04659 18.8963 1.67069 19.5437 1.32959 20.205L4.28809 21.9174L3.27872 18.4577Z" fill="url(#paint_linear_7)" fill-rule="nonzero" />
				<path id="Vector" d="M19.1988 18.1518C18.8089 18.1518 18.4609 18.0056 18.1964 17.762L14.4861 19.8155C14.5348 19.9965 14.5626 20.1844 14.5626 20.3794C14.5626 20.7761 14.4513 21.152 14.2494 21.4653L16.1359 23.3518L21.7535 20.1079C21.7952 20.08 21.844 20.0522 21.8857 20.0243L19.8601 17.9986C19.6582 18.0961 19.4354 18.1518 19.1988 18.1518Z" fill="url(#paint_linear_8)" fill-rule="nonzero" />
			</g>
		</g>
	</g>
</svg>
