<svg viewBox="0 0 35 35" xmlns="http://www.w3.org/2000/svg" xmlns:xlink="http://www.w3.org/1999/xlink" width="35.000000" height="35.000000" fill="none" customFrame="#000000">
	<g id="Group 15">
		<circle id="Ellipse 1" cx="17.5" cy="17.5" r="17.5" fill="rgb(244.468,248.611,251.812)" />
		<g id="Group 13">
			<g id="Group">
				<g id="Group">
					<path id="Vector" d="M17.4549 18.0115C12.6474 18.0115 9.99976 20.2857 9.99976 24.4154C9.99976 24.7379 10.2612 24.9993 10.5837 24.9993L24.3261 24.9993C24.6486 24.9993 24.91 24.7379 24.91 24.4154C24.9101 20.2859 22.2624 18.0115 17.4549 18.0115ZM11.1889 23.8314C11.4186 20.7438 13.5237 19.1794 17.4549 19.1794C21.3861 19.1794 23.4913 20.7438 23.7211 23.8314L11.1889 23.8314Z" fill="rgb(2.65625,13.145,21.25)" fill-rule="nonzero" />
				</g>
			</g>
			<g id="Group">
				<g id="Group">
					<path id="Vector" d="M17.455 8.99976C15.2467 8.99976 13.5815 10.6984 13.5815 12.9509C13.5815 15.2694 15.3192 17.1553 17.455 17.1553C19.5909 17.1553 21.3285 15.2694 21.3285 12.9511C21.3285 10.6984 19.6633 8.99976 17.455 8.99976ZM17.455 15.9876C15.963 15.9876 14.7494 14.6255 14.7494 12.9511C14.7494 11.3383 15.8873 10.1676 17.455 10.1676C18.9976 10.1676 20.1606 11.3641 20.1606 12.9511C20.1606 14.6255 18.947 15.9876 17.455 15.9876Z" fill="rgb(2.65625,13.145,21.25)" fill-rule="nonzero" />
				</g>
			</g>
		</g>
	</g>
</svg>
