<svg viewBox="0 0 22.75 21.0227" xmlns="http://www.w3.org/2000/svg" xmlns:xlink="http://www.w3.org/1999/xlink" width="22.750000" height="21.022705" fill="none" customFrame="#000000">
	<g id="Group 51">
		<g id="Group 12">
			<path id="Vector" d="M6.56805 20.2729C6.16641 20.2729 5.84082 19.9473 5.84082 19.5456C5.84082 19.144 6.16641 18.8184 6.56805 18.8184C6.96969 18.8184 7.29529 19.144 7.29529 19.5456C7.29529 19.9473 6.96969 20.2729 6.56805 20.2729Z" stroke="rgb(2.65625,13.145,21.25)" stroke-linecap="round" stroke-linejoin="round" stroke-width="1.5" />
			<path id="Vector" d="M14.5681 20.2729C14.1664 20.2729 13.8408 19.9473 13.8408 19.5456C13.8408 19.144 14.1664 18.8184 14.5681 18.8184C14.9698 18.8184 15.2954 19.144 15.2954 19.5456C15.2954 19.9473 14.9698 20.2729 14.5681 20.2729Z" stroke="rgb(2.65625,13.145,21.25)" stroke-linecap="round" stroke-linejoin="round" stroke-width="1.5" />
			<path id="Vector" d="M0.75 4.99976L3.65911 4.99976L5.60822 14.7379C5.67472 15.0728 5.85688 15.3735 6.1228 15.5876C6.38872 15.8017 6.72146 15.9154 7.06278 15.9088L14.1319 15.9088C14.4732 15.9154 14.806 15.8017 15.0719 15.5876C15.3378 15.3735 15.52 15.0728 15.5865 14.7379L16.7501 8.63612L4.38639 8.63612" fill-rule="nonzero" stroke="rgb(2.65625,13.145,21.25)" stroke-linecap="round" stroke-linejoin="round" stroke-width="1.5" />
		</g>
		<g id="Group 17">
			<circle id="Ellipse 2" cx="16.75" cy="8" r="6" fill="rgb(199,37,53)" />
		</g>
		<path id="3" d="M18.9 9.275C18.9 9.80833 18.7133 10.2517 18.34 10.605C17.9667 10.9583 17.44 11.135 16.76 11.135C16.1333 11.135 15.59 11.025 15.13 10.805L15.13 10.015C15.6233 10.275 16.16 10.405 16.74 10.405C17.1667 10.405 17.4967 10.295 17.73 10.075C17.97 9.855 18.09 9.56833 18.09 9.215C18.09 8.86167 17.9567 8.59167 17.69 8.405C17.43 8.21167 17.0533 8.115 16.56 8.115L16.14 8.115L16.14 7.425L16.56 7.425C16.9333 7.425 17.2467 7.32167 17.5 7.115C17.76 6.90167 17.89 6.61833 17.89 6.265C17.89 5.91167 17.78 5.645 17.56 5.465C17.34 5.285 17.0367 5.195 16.65 5.195C16.19 5.195 15.75 5.33167 15.33 5.605L15.33 4.835C15.7167 4.58833 16.1633 4.465 16.67 4.465C17.3167 4.465 17.8167 4.63167 18.17 4.965C18.53 5.29167 18.71 5.69833 18.71 6.185C18.71 6.53833 18.62 6.855 18.44 7.135C18.2667 7.415 18.0067 7.625 17.66 7.765C18.04 7.85167 18.34 8.02833 18.56 8.295C18.7867 8.555 18.9 8.88167 18.9 9.275Z" fill="rgb(255,255,255)" fill-rule="nonzero" />
	</g>
</svg>
