<svg viewBox="0 0 24.0123 22.001" xmlns="http://www.w3.org/2000/svg" xmlns:xlink="http://www.w3.org/1999/xlink" width="24.012268" height="22.000977" fill="none" customFrame="#000000">
	<g id="Group 54">
		<path id="Vector" d="M1 1L4.99999 1L7.67999 14.3908C7.77144 14.8512 8.0219 15.2648 8.38754 15.5591C8.75317 15.8535 9.21069 16.0098 9.67999 16.0009L19.4 16.0009C19.8693 16.0098 20.3268 15.8535 20.6924 15.5591C21.0581 15.2648 21.3085 14.8512 21.4 14.3908L23 6.00028L5.99999 6.00028" fill-rule="nonzero" stroke="rgb(2.65625,13.145,21.25)" stroke-linecap="round" stroke-linejoin="round" stroke-width="2" />
		<path id="Vector" d="M9 21.001C8.44771 21.001 8 20.5534 8 20.0012C8 19.4491 8.44771 19.0015 9 19.0015C9.55228 19.0015 10 19.4491 10 20.0012C10 20.5534 9.55228 21.001 9 21.001Z" stroke="rgb(2.65625,13.145,21.25)" stroke-linecap="round" stroke-linejoin="round" stroke-width="2" />
		<path id="Vector" d="M20 21.001C19.4477 21.001 19 20.5534 19 20.0012C19 19.4491 19.4477 19.0015 20 19.0015C20.5523 19.0015 21 19.4491 21 20.0012C21 20.5534 20.5523 21.001 20 21.001Z" stroke="rgb(2.65625,13.145,21.25)" stroke-linecap="round" stroke-linejoin="round" stroke-width="2" />
	</g>
</svg>
