<svg viewBox="0 0 22.9031 20.2938" xmlns="http://www.w3.org/2000/svg" xmlns:xlink="http://www.w3.org/1999/xlink" width="22.903137" height="20.293816" fill="none" customFrame="#000000">
	<path id="Vector" d="M18.5067 1.41894C17.8392 1.14236 17.1238 1 16.4013 1C15.6788 1 14.9634 1.14236 14.296 1.41894C13.6285 1.69552 13.0221 2.10091 12.5113 2.61194L11.4513 3.67202L10.3913 2.61194C9.35962 1.58018 7.96034 1.00053 6.5013 1.00053C5.04227 1.00053 3.64299 1.58018 2.61129 2.61194C1.5796 3.64371 1 5.04309 1 6.50223C1 7.96137 1.5796 9.36074 2.61129 10.3925L3.6713 11.4526L11.4513 19.2332L19.2313 11.4526L20.2913 10.3925C20.8023 9.88172 21.2077 9.27524 21.4843 8.60774C21.7608 7.94023 21.9032 7.22477 21.9032 6.50223C21.9032 5.77969 21.7608 5.06423 21.4843 4.39672C21.2077 3.72921 20.8023 3.12274 20.2913 2.61194C19.7806 2.10091 19.1742 1.69552 18.5067 1.41894Z" fill-rule="nonzero" stroke="rgb(2.65625,13.145,21.25)" stroke-linecap="round" stroke-linejoin="round" stroke-width="2" />
</svg>
