<svg viewBox="0 0 65 11.7742" xmlns="http://www.w3.org/2000/svg" xmlns:xlink="http://www.w3.org/1999/xlink" width="65.000000" height="11.774170" fill="none" customFrame="#000000">
	<g id="Group 32">
		<path id="Vector" d="M6.19049 0L8.10335 3.8752L12.381 4.50043L9.28574 7.51516L10.0162 11.7742L6.19049 9.76229L2.36477 11.7742L3.09525 7.51516L0 4.50043L4.27763 3.8752L6.19049 0Z" fill="rgb(199,37,53)" fill-rule="nonzero" />
		<path id="Vector" d="M19.3453 0L21.2581 3.8752L25.5358 4.50043L22.4405 7.51516L23.171 11.7742L19.3453 9.76229L15.5196 11.7742L16.25 7.51516L13.1548 4.50043L17.4324 3.8752L19.3453 0Z" fill="rgb(199,37,53)" fill-rule="nonzero" />
		<path id="Vector" d="M32.5001 0L34.4129 3.8752L38.6906 4.50043L35.5953 7.51516L36.3258 11.7742L32.5001 9.76229L28.6743 11.7742L29.4048 7.51516L26.3096 4.50043L30.5872 3.8752L32.5001 0Z" fill="rgb(199,37,53)" fill-rule="nonzero" />
		<path id="Vector" d="M45.6548 0L47.5677 3.8752L51.8453 4.50043L48.75 7.51516L49.4805 11.7742L45.6548 9.76229L41.8291 11.7742L42.5596 7.51516L39.4644 4.50043L43.742 3.8752L45.6548 0Z" fill="rgb(199,37,53)" fill-rule="nonzero" />
		<path id="Vector" d="M58.8096 0L60.7224 3.8752L65 4.50043L61.9048 7.51516L62.6353 11.7742L58.8096 9.76229L54.9839 11.7742L55.7144 7.51516L52.6191 4.50043L56.8967 3.8752L58.8096 0Z" fill="rgb(244.468,248.611,251.812)" fill-rule="nonzero" />
	</g>
</svg>
